<?xml version="1.0" encoding="UTF-8" standalone="no"?>
<!-- Created with Inkscape (http://www.inkscape.org/) -->

<svg
   xmlns:dc="http://purl.org/dc/elements/1.1/"
   xmlns:cc="http://creativecommons.org/ns#"
   xmlns:rdf="http://www.w3.org/1999/02/22-rdf-syntax-ns#"
   xmlns:svg="http://www.w3.org/2000/svg"
   xmlns="http://www.w3.org/2000/svg"
   xmlns:sodipodi="http://sodipodi.sourceforge.net/DTD/sodipodi-0.dtd"
   xmlns:inkscape="http://www.inkscape.org/namespaces/inkscape"
   version="1.1"
   id="svg2"
   width="752"
   height="628"
   viewBox="0 0 752 628"
   sodipodi:docname="ankh eye.jpg.svg"
   inkscape:version="0.92.2 (unknown)">
  <metadata
     id="metadata8">
    <rdf:RDF>
      <cc:Work
         rdf:about="">
        <dc:format>image/svg+xml</dc:format>
        <dc:type
           rdf:resource="http://purl.org/dc/dcmitype/StillImage" />
        <dc:title></dc:title>
      </cc:Work>
    </rdf:RDF>
  </metadata>
  <defs
     id="defs6" />
  <sodipodi:namedview
     pagecolor="#ffffff"
     bordercolor="#666666"
     borderopacity="1"
     objecttolerance="10"
     gridtolerance="10"
     guidetolerance="10"
     inkscape:pageopacity="0"
     inkscape:pageshadow="2"
     inkscape:window-width="1280"
     inkscape:window-height="776"
     id="namedview4"
     showgrid="false"
     inkscape:zoom="0.55980648"
     inkscape:cx="468.78305"
     inkscape:cy="205.395"
     inkscape:window-x="0"
     inkscape:window-y="24"
     inkscape:window-maximized="1"
     inkscape:current-layer="svg2" />
  <path
     style="fill:#000000;stroke-width:1.33333337"
     d="M 100.6056,560.84559 C 78.188982,554.60507 65.487114,540.30735 58.593528,522.6907 48.125725,495.9401 51.366354,461.48845 66.123445,436.843 78.835555,415.61283 105.63526,405.47867 128.249,396.20708 c 19.2253,14.18591 16.50645,32.71614 -19.25054,44.5438 -30.916283,10.22645 -17.390025,56.79715 -1.61043,72.57675 20.41802,20.41802 79.98024,-12.61464 97.84118,-22.60618 47.59002,-26.68666 87.22425,-66.21329 125.43746,-105.15861 15.59323,-15.89197 28.16887,-34.48991 41.93189,-51.99084 5.8202,-7.40092 17.81528,-16.77615 17.18612,-22.41589 -0.54291,-4.8666 -9.22633,-2.66601 -13.9714,-2.73598 -12.14574,-0.17909 -24.09608,3.30605 -35.95286,5.9457 -23.12064,5.1473 -48.69536,4.78092 -68.40502,19.24275 -9.34847,29.26664 -19.51727,-26.11107 -14.91829,-34.82804 24.24004,-10.87279 51.35539,-16.75042 77.46289,-17.68197 -11.85372,-7.22978 -33.12421,-12.54595 -45.62487,-20.58481 -17.36194,-11.16503 -34.38139,-13.22035 -57.87973,-17.30155 -14.60011,-2.53575 -39.5733,4.22591 -51.62596,-9.33753 -6.53824,-10.35719 -6.11552,-46.1826 20.94031,-37.44303 20.53487,1.60088 39.91227,-5.92954 60.46048,-14.7569 8.85311,-3.80323 18.27648,-11.06441 27.74135,-16.00155 8.3654,-4.36362 18.1653,-7.98208 25.62849,-12.01545 12.37929,-6.6902 19.41967,-12.466 35.63154,-18.92836 8.6002,-3.42821 15.15754,-6.64515 31.48916,-9.85145 14.08579,-2.76539 8.11905,-3.30596 26.83305,-5.11699 17.74367,-1.71713 36.28103,-3.59575 52.40618,-1.4257 21.42066,2.88269 30.54242,5.05025 44.19886,8.57717 12.06017,3.11467 19.07729,2.58913 33.53241,12.4629 18.23303,12.45432 28.10543,20.52444 48.13408,32.22808 20.97498,14.56373 45.89608,21.66278 69.78153,25.47588 10.39965,-2.40129 15.57258,32.4489 3.79071,36.17578 -28.75774,0.70806 -57.17245,10.11534 -84.81867,18.71543 -7.69869,2.39488 -18.43741,7.52521 -22.40805,9.10641 -18.74188,7.46343 0.1623,5.90045 15.69963,6.67947 37.97715,1.90411 36.58388,8.64703 37.17922,34.94232 0.59112,26.1092 3.70415,23.44107 -14.41259,10.34707 -21.55406,-15.57834 -74.64764,-14.06048 -111.61052,-10.03318 -28.18163,3.07054 -25.63464,5.72866 -25.12022,50.43218 0.37555,32.63594 0.44803,68.55874 11.11826,100.18621 7.27814,21.57302 21.71529,31.95595 32.99664,51.49583 7.13151,12.35214 -15.03272,16.23444 -25.19448,17.7749 -29.07722,4.40794 -63.82133,9.58295 -92.87975,-0.26352 -14.81764,-5.02097 -18.69233,-14.39382 -18.18945,-24.13949 16.44392,-6.87938 25.64528,-21.45157 33.35994,-35.83202 8.97724,-16.73394 11.28676,-36.51645 13.2708,-55.4024 1.96074,-18.66412 4.57458,-47.79971 -1.45042,-56.28179 -15.82972,12.93558 -27.04206,32.04395 -38.58289,42.82886 -17.91406,16.7407 -31.7233,34.48416 -48.58757,50.72636 -29.27985,28.1998 -57.1828,58.69988 -91.17829,80.98991 -23.05771,15.11839 -48.00044,29.49269 -75.03329,34.81407 -17.25362,3.39635 -35.07605,5.49102 -52.99029,0.50391 z m 332.32747,-293.4301 c 4.59062,-11.82181 17.99624,-25.71761 23.02943,-40.36925 4.87033,-14.17756 7.40552,-29.55226 6.42538,-44.51096 -2.35779,-35.984 -21.40205,-38.97455 -43.72121,-26.64639 -24.64751,13.61424 -26.17618,34.62564 -18.69086,56.10351 6.40683,18.38333 17.13007,39.90859 20.40383,45.79154 2.62955,4.72531 8.73056,19.47625 12.55343,9.63155 z m -59.59974,-13.9189 c -8.61466,-14.20092 -6.30923,-8.48127 -14.92788,-23.7726 -8.89681,-15.78485 -6.21036,-38.57318 -6.38849,-51.05732 3.68246,-23.21669 -28.02861,2.55748 -41.35029,6.75016 C 297.02615,189.70986 286.842,197.49457 272,204 c -26.10826,11.44357 7.74061,13.06245 20.5136,18.24324 10.1006,4.09686 25.46261,12.28338 31.63237,14.72518 12.99998,5.14499 16.26286,6.20663 30.7559,12.19091 5.30845,2.1919 12.97538,7.50571 18.43146,4.33726 z m 141.93004,-21.38738 c 21.70446,-5.92086 54.95656,-12.4452 69.16972,-20.99993 -10.42082,-9.58042 -27.45282,-14.96428 -41.82469,-22.24852 -9.12738,-4.62613 -32.49087,-16.69687 -34.03383,-8.41393 -5.30435,15.17454 -2.53,36.55466 -8.6994,52.8865 -3.42598,4.63498 13.71587,-1.27905 15.3882,-1.22412 z m -323.2644,-61.77588 c -10.89043,-1.97668 -6.99651,-19.76793 -8.28149,-33.01306 19.38176,-10.80795 49.02148,-10.54572 72.40783,-19.32814 17.986,-6.75439 34.64534,-16.63194 51.70662,-25.465449 16.65818,-8.624808 33.54677,-20.249505 49.44389,-26.87458 C 400.85543,47.490432 450.79914,51.848387 496,60.244297 c 20.31997,3.774367 39.31348,15.178341 57.33333,24.894995 27.58969,14.876898 52.74446,36.823598 84.21234,43.420448 14.6697,6.523 40.26213,-4.93417 32.22362,24.42565 -2.6061,26.95921 -36.95692,23.17985 -53.37762,15.85133 -18.26145,-8.15004 -34.33866,-24.07784 -52.91583,-33.66683 -20.744,-10.70745 -41.78023,-19.07777 -64.87085,-26.39017 -24.41468,-7.73171 -48.89799,-11.673143 -73.83394,-12.099506 -17.17721,-0.293701 -34.52031,2.149648 -51.11597,6.591156 -16.23725,4.34559 -31.49292,11.91772 -46.54764,19.39353 -21.36935,10.6115 -40.65956,25.53609 -61.86396,36.00177 -10.4793,5.17218 -43.35051,11.88828 -65.60911,12.62045 -2.56353,0.0843 -4.96664,-0.46939 -7.6354,-0.95379 z"
     id="path817"
     inkscape:connector-curvature="0"
     sodipodi:nodetypes="saacsscaasaacccssccsassssssscccasssssssssscaacsaasssassssscscasssscccscccscaasssccsasaaasas" />
</svg>
